<svg id="Layer_1" data-name="Layer 1" xmlns="http://www.w3.org/2000/svg" viewBox="0 0 400 300" data-imageid="eco-car-02" imageName="Ecology" class="illustrations_image" style="width: 269px;"><path d="M321.6,56.73a7.09,7.09,0,0,0-8.28-7,9.62,9.62,0,0,0-8.47-5.06l-.35,0A11.42,11.42,0,1,0,282,41.88a11,11,0,0,0,.36,2.77l-.36,0a9.62,9.62,0,0,0,0,19.23h33.38V63.8A7.14,7.14,0,0,0,321.6,56.73Z" fill="#efefef"/><path d="M225.49,136.17S214.64,132.8,214,141.9l12.73.42Z" fill="#e6e6e6"/><path d="M254.93,152.07s0-4,3.1-4.31,1.87,4.36,4.59,4.31,5.28-3.63,7.15,1.31-3.7,4.92,1.05,7.23,4.2,6.57-.38,6.9S252.85,158.42,254.93,152.07Z" fill="#68e1fd" class="target-color"/><path d="M254.93,152.07s0-4,3.1-4.31,1.87,4.36,4.59,4.31,5.28-3.63,7.15,1.31-3.7,4.92,1.05,7.23,4.2,6.57-.38,6.9S252.85,158.42,254.93,152.07Z" fill="#fff" opacity="0.44"/><path d="M240.38,60.37c-3.71-11.55-20.07-11.6-23.79,0-8.2,25.41-14.54,56.42,3,57.32,29.79,1.53,31.41-4.16,30-17.7C248.3,88.6,245.59,76.61,240.38,60.37Z" fill="#68e1fd" class="target-color"/><path d="M240.38,60.37c-3.71-11.55-20.07-11.6-23.79,0-8.2,25.41-14.54,56.42,3,57.32,29.79,1.53,31.41-4.16,30-17.7C248.3,88.6,245.59,76.61,240.38,60.37Z" opacity="0.08"/><polygon points="225.14 142.32 229.4 67.78 230.36 142.91 226.68 142.32 225.14 142.32" fill="#24285b"/><path d="M202.81,134.12s-3.16-4.74-5.72-3.55,1.93,8.17-2.27,6.64-7.09-.85-6.92,3.06-9,1.17-3.89,12.41l18.19-7.81.61-10.05Z" fill="#68e1fd" class="target-color"/><path d="M202.81,134.12s-3.16-4.74-5.72-3.55,1.93,8.17-2.27,6.64-7.09-.85-6.92,3.06-9,1.17-3.89,12.41l18.19-7.81.61-10.05Z" fill="#fff" opacity="0.44"/><path d="M174.63,167.17s2.55-18.88,32.68-24.41,66.38,10.33,71.49,47.59S183.31,196.58,174.63,167.17Z" fill="#c1c1c1"/><path d="M195.05,202.21s28.09,12.62,51.07,15.18,51.57-18.85,42.38-27-29.11,3.13-43.41-3.55S191.48,171.19,195.05,202.21Z" fill="#f4a28c"/><path d="M195.05,202.21s28.09,12.62,51.07,15.18,51.57-18.85,42.38-27-29.11,3.13-43.41-3.55S191.48,171.19,195.05,202.21Z" opacity="0.09"/><path d="M120.06,164.09a6.62,6.62,0,0,0-6.62-6.63,6.24,6.24,0,0,0-1.06.1,8.92,8.92,0,0,0-7.86-4.7h-.33a10.34,10.34,0,0,0,.33-2.57,10.6,10.6,0,0,0-21.2,0,10.83,10.83,0,0,0,.33,2.57h-.33a8.93,8.93,0,0,0,0,17.85h31v-.06A6.62,6.62,0,0,0,120.06,164.09Z" fill="#dddbdb"/><path d="M341.52,150.33a6.62,6.62,0,0,0-6.62-6.62,7.47,7.47,0,0,0-1.07.09,8.91,8.91,0,0,0-7.86-4.7l-.33,0a10.4,10.4,0,0,0,.33-2.57,10.6,10.6,0,1,0-21.19,0,10.9,10.9,0,0,0,.32,2.57l-.32,0a8.93,8.93,0,1,0,0,17.85h31v-.06A6.62,6.62,0,0,0,341.52,150.33Z" fill="#f2f2f2"/><path d="M147.64,197.69s4-30.55,19.33-35.29,42.89.41,61.78,9.58,35.75,1.66,40.85,10.78,0,19.64-19.4,15.66-53.46,11.32-53.46,11.32Z" fill="#f4a28c"/><path d="M203.35,117.28a61.67,61.67,0,0,1-24.7,1.88s14.47-6.46,19.06-15l-15.32-2s15-4.08,17.19-17.36l-13.1,1.7S202.6,73,204.61,55.33c0,0,5,26.22,18.63,32.17l-13.1-2.38a26.66,26.66,0,0,0,16.26,17.7s-7.92,3.58-14.9,2.05c0,0,7.15,10.38,19.06,14.12C230.56,119,214.6,121,203.35,117.28Z" fill="#68e1fd" class="target-color"/><path d="M268.9,81.08c-3.7-11.55-20.06-11.6-23.79-.06-8.19,25.42-14.53,56.43,3,57.33,29.78,1.53,31.41-4.17,30-17.71C276.83,109.31,274.11,97.32,268.9,81.08Z" fill="#68e1fd" class="target-color"/><polygon points="200.61 145.38 204.86 70.83 205.82 145.38 202.14 145.38 200.61 145.38" fill="#24285b"/><polygon points="253.67 163.03 257.92 88.48 258.88 163.03 255.2 163.03 253.67 163.03" fill="#24285b"/><path d="M206.32,164s-3.4-5.48,1.09-7.91,4.11,3.62,8.45.53,8.3-5,10.34,0-1,7.2,5.62,6.4,7.53,1.61,6.89,4.49,7.94,2.43,2.88,8.59C241.59,176.11,219.25,170.25,206.32,164Z" fill="#68e1fd" class="target-color"/><path d="M206.32,164s-3.4-5.48,1.09-7.91,4.11,3.62,8.45.53,8.3-5,10.34,0-1,7.2,5.62,6.4,7.53,1.61,6.89,4.49,7.94,2.43,2.88,8.59C241.59,176.11,219.25,170.25,206.32,164Z" fill="#fff" opacity="0.44"/><ellipse cx="239.77" cy="145.38" rx="3.11" ry="3.79" transform="translate(8.9 304.51) rotate(-65.81)" fill="#e6e6e6"/><path d="M256.74,161.76a4,4,0,0,0-2.64-2.38,4,4,0,0,0-3.9.81c-2.47,2.21-1.62,4.68,1.87,4.68C255.15,164.87,258.15,165.2,256.74,161.76Z" fill="#e6e6e6"/><path d="M173.46,161.05s-.54-3.72,4.06-4.42,6.55,1.45,6.47,4C184,160.66,176.27,160.61,173.46,161.05Z" fill="#e6e6e6"/><path d="M270.08,183.68s-1.32-5.22,2.59-4.22,2.41,2.94,5.74-1,10.26,1.83,3.66,9.08a94.65,94.65,0,0,0-10.73.18Z" fill="#68e1fd" class="target-color"/><circle cx="135.65" cy="79.27" r="21.56" fill="#ffd200"/><circle cx="135.65" cy="79.27" r="33.7" fill="#ffd200" opacity="0.15"/><polygon points="147.64 197.69 118.45 258.67 183.99 258.67 196.74 209.75 147.64 197.69" fill="#f4a28c"/><polygon points="107.73 258.02 189.43 258.02 196.74 224.9 122.03 220.38 107.73 258.02" fill="#24285b"/><circle cx="152.66" cy="240.62" r="7.15" fill="#fff"/></svg>